# xmcd
#
# Track frame offsets: 
#        150
#        11462
#        21977
#        32941
#        46658
#        58518
#        70746
#        81006
#        94140
#        110113
#        121984
#        136504
#        150366
#        163631
#        179368
#        194956
#        204893
#        218368
#        230107
#        241144
#        256369
#        269387
#
# Disc length: 3780 seconds
#
# Revision: 1
# Processed by: cddbd v1.5.2PL0 Copyright (c) Steve Scherf et al.
# Submitted via: ExactAudioCopyFreeDBPlugin 1.0
#
DISCID=270ec216
DTITLE=Wendy Rene - After Laughter Comes Tears:  Complete Stax and Volt 
DTITLE=Singles and Rarities, 1964-65
DYEAR=2012
DGENRE=Rhythm and Blues
TTITLE0=Bar-B-Q
TTITLE1=Gone for Good
TTITLE2=Your Love is All I Need  (as "The Drapels")
TTITLE3=After Laughter Comes Tears
TTITLE4=I Wish I Were That Girl  (previously unreleased)
TTITLE5=What Will Tomorrow Bring
TTITLE6=Wondering (When My Love Is Coming Home)  (as "The Drapels")
TTITLE7=Deep in My Heart  (previously unreleased)
TTITLE8=Give You What I Got
TTITLE9=Crying All By Myself
TTITLE10=Crowded Park
TTITLE11=Last Love
TTITLE12=Love at First Sight
TTITLE13=She's Moving Away
TTITLE14=He Hasn't Failed Me Yet  (previously unreleased)
TTITLE15=Please Don't Leave Me  (as "The Drapels")
TTITLE16=The Same Guy
TTITLE17=Young Man  (as "The Drapels")
TTITLE18=Can't Stay Away
TTITLE19=First Kiss  (previously unreleased)
TTITLE20=Reap What You Sow
TTITLE21=Young and Foolish
EXTD=
EXTT0=
EXTT1=
EXTT2=
EXTT3=
EXTT4=
EXTT5=
EXTT6=
EXTT7=
EXTT8=
EXTT9=
EXTT10=
EXTT11=
EXTT12=
EXTT13=
EXTT14=
EXTT15=
EXTT16=
EXTT17=
EXTT18=
EXTT19=
EXTT20=
EXTT21=
PLAYORDER=
